<svg width="30" height="30" fill="none" xmlns="http://www.w3.org/2000/svg"><path d="M15 .469C6.716.469 0 6.975 0 15s6.716 14.531 15 14.531c8.284 0 15-6.506 15-14.531S23.284.469 15 .469zm6.953 9.882c-.226 2.298-1.203 7.874-1.7 10.447-.21 1.09-.624 1.455-1.025 1.49-.87.078-1.533-.558-2.376-1.093-1.32-.839-2.066-1.36-3.348-2.179-1.48-.945-.52-1.464.323-2.314.221-.222 4.06-3.604 4.134-3.91.009-.04.018-.183-.07-.258-.088-.075-.217-.05-.31-.03-.133.03-2.242 1.38-6.328 4.052-.598.398-1.14.592-1.627.582-.535-.01-1.565-.293-2.331-.534-.94-.296-1.686-.453-1.621-.955.034-.262.406-.53 1.116-.803 4.372-1.845 7.288-3.062 8.747-3.65 4.166-1.678 5.032-1.97 5.596-1.98.124-.002.401.028.581.17.12.1.196.24.213.393.031.19.04.381.026.572z" fill="#fff"/></svg>