<svg width="182" height="177" fill="none" xmlns="http://www.w3.org/2000/svg"><path d="M91 177c50.258 0 91-39.623 91-88.5S141.258 0 91 0 0 39.623 0 88.5 40.742 177 91 177z" fill="url(#paint0_linear_201_359)"/><path d="M135.291 50.922l-16.245 79.685s-2.275 5.531-8.531 2.869l-37.502-27.967-13.65-6.396L36.4 91.611s-3.52-1.21-3.875-3.872 3.982-4.079 3.982-4.079l91.284-34.812c0-.035 7.5-3.25 7.5 2.074z" fill="#fff"/><path d="M70.098 129.708s-1.102-.104-2.452-4.287c-1.351-4.183-8.283-26.308-8.283-26.308l55.133-34.052s3.2-1.866 3.058 0c0 0 .568.346-1.138 1.867-1.706 1.556-43.296 37.924-43.296 37.924" fill="#D2E4F0"/><path d="M87.374 116.225l-14.823 13.172s-1.173.864-2.417.311l2.844-24.441" fill="#B5CFE4"/><defs><linearGradient id="paint0_linear_201_359" x1="91" y1="0" x2="91" y2="176.354" gradientUnits="userSpaceOnUse"><stop stop-color="#41BCE7"/><stop offset="1" stop-color="#22A6DC"/></linearGradient></defs></svg>