<svg width="180" height="174" fill="none" xmlns="http://www.w3.org/2000/svg"><path d="M140.001 63.162H152.7l-.585-7.108c-.143-1.734-1.2-3.275-2.797-4.078l-3.344-1.682c-1.723-.866-2.806-2.584-2.813-4.46 1.855-1.395 3.289-3.792 3.937-6.324a.807.807 0 00.132.011c.695 0 1.258-.904 1.263-1.694a2.06 2.06 0 00.498-1.308c0-.792-.566-1.434-1.264-1.434-.125 0-.245.02-.359.059h.001s.781-.636.482-3.269c-.298-2.632-1.886-3.642-1.886-3.642.726-.649 0-1.658 0-1.658-.915.793-8.857-.289-10.424 0-1.566.288-2.685 1.659-3.58 3.966-.668 1.72-.34 3.68-.13 4.566a1.13 1.13 0 00-.219-.023c-.698 0-1.264.643-1.264 1.435 0 .464.196.97.498 1.308.005.79.569 1.694 1.264 1.694a.815.815 0 00.225-.034c.646 2.54 2.083 4.948 3.943 6.346-.007 1.877-1.09 3.595-2.813 4.461l-3.344 1.682c-1.597.803-2.654 2.344-2.797 4.078l-.585 7.108h13.262zm-99.236 0h12.698l-.584-7.108c-.143-1.734-1.2-3.275-2.797-4.078l-3.345-1.682c-1.723-.866-2.805-2.584-2.812-4.46 1.854-1.395 3.289-3.792 3.937-6.324a.797.797 0 00.131.011c.695 0 1.259-.904 1.264-1.694a2.06 2.06 0 00.498-1.308c0-.792-.566-1.434-1.264-1.434-.125 0-.245.02-.359.059h.001s.78-.636.482-3.269c-.298-2.632-1.885-3.642-1.885-3.642.725-.649 0-1.658 0-1.658-.916.793-8.858-.289-10.424 0-1.567.288-2.686 1.659-3.581 3.966-.667 1.72-.34 3.68-.13 4.566a1.118 1.118 0 00-.218-.023c-.698 0-1.264.643-1.264 1.435 0 .464.195.97.497 1.308.005.79.569 1.694 1.264 1.694a.816.816 0 00.225-.034c.646 2.54 2.083 4.948 3.943 6.346-.007 1.877-1.09 3.595-2.813 4.461l-3.344 1.682c-1.597.803-2.654 2.344-2.797 4.078l-.585 7.108h13.262zm-2.531 4.35v4.446c0 4.077 3.43 7.395 7.65 7.395h15.211v-4.35H45.884c-1.737 0-3.15-1.366-3.15-3.045v-4.446h-4.5zm103.768 4.446v-4.446h-4.5v4.446c0 1.679-1.413 3.045-3.15 3.045h-14.937v4.35h14.937c4.217 0 7.65-3.318 7.65-7.395zm7.316 64.23l-3.345-1.682c-1.723-.866-2.805-2.584-2.812-4.461 1.854-1.394 3.288-3.791 3.937-6.323a.83.83 0 00.132.011c.695 0 1.258-.904 1.263-1.694a2.06 2.06 0 00.498-1.308c0-.792-.566-1.435-1.264-1.435-.125 0-.245.022-.359.06v-.001h.001s.781-.636.482-3.268c-.298-2.632-1.885-3.642-1.885-3.642.725-.649 0-1.658 0-1.658-.916.793-8.858-.289-10.424 0-1.567.288-2.686 1.658-3.581 3.966-.667 1.72-.34 3.679-.13 4.566a1.128 1.128 0 00-.218-.023c-.698 0-1.264.642-1.264 1.434 0 .465.195.97.497 1.309.005.79.569 1.694 1.264 1.694a.812.812 0 00.225-.034c.646 2.54 2.083 4.947 3.943 6.346-.007 1.877-1.089 3.595-2.812 4.461l-3.345 1.681c-1.597.803-2.654 2.344-2.797 4.079l-.584 7.108h25.96l-.585-7.108c-.143-1.734-1.2-3.276-2.797-4.078zm-99.236 0l-3.345-1.682c-1.723-.866-2.805-2.584-2.812-4.461 1.854-1.394 3.288-3.791 3.937-6.323a.819.819 0 00.131.011c.695 0 1.259-.904 1.264-1.694a2.06 2.06 0 00.498-1.308c0-.792-.566-1.435-1.264-1.435-.125 0-.246.022-.36.06v-.001h.002s.78-.636.482-3.268c-.299-2.632-1.886-3.642-1.886-3.642.726-.649 0-1.658 0-1.658-.916.793-8.857-.289-10.424 0-1.567.288-2.686 1.658-3.58 3.966-.668 1.72-.34 3.679-.13 4.566a1.125 1.125 0 00-.219-.023c-.698 0-1.264.642-1.264 1.434 0 .465.196.97.498 1.309.005.79.568 1.694 1.263 1.694a.812.812 0 00.225-.034c.646 2.54 2.083 4.947 3.943 6.346-.006 1.877-1.089 3.595-2.812 4.461l-3.345 1.681c-1.597.803-2.654 2.344-2.796 4.079l-.585 7.108h25.96l-.585-7.108c-.142-1.734-1.2-3.276-2.796-4.078zm89.88-29.636c.675.042 1.359.086 2.007.12v-4.731c0-4.078-3.432-7.395-7.65-7.395h-14.904v4.35h14.904c1.737 0 3.15 1.366 3.15 3.045v4.47c.756.032 1.608.086 2.493.141zm-101.761-4.611v4.469c.765.031 1.627.085 2.526.142.662.042 1.337.086 1.974.119v-4.73c0-1.679 1.413-3.045 3.15-3.045h15.244v-4.35H45.851c-4.219 0-7.65 3.317-7.65 7.395z" fill="#fff"/><path d="M144.979 79.537c-3.481 0-6.423 2.227-7.386 5.288h-22.678V68.382c0-2.883-2.417-5.22-5.4-5.22h-17.01V40.994c3.167-.931 5.471-3.775 5.471-7.14 0-4.122-3.457-7.463-7.72-7.463-4.265 0-7.721 3.34-7.721 7.463 0 3.365 2.304 6.209 5.47 7.14v22.168h-17.01c-2.982 0-5.4 2.337-5.4 5.22v16.443H42.408c-.964-3.06-3.906-5.288-7.387-5.288-4.264 0-7.72 3.341-7.72 7.463s3.456 7.463 7.72 7.463c3.481 0 6.423-2.227 7.387-5.288h23.188v16.443c0 2.883 2.417 5.22 5.4 5.22h3.774l.533-6.485c.157-1.914 1.235-3.631 2.894-4.653l7.838 11.138h1.97v22.168c-3.166.931-5.47 3.775-5.47 7.14 0 4.122 3.457 7.464 7.72 7.464 4.265 0 7.721-3.342 7.721-7.464 0-3.365-2.304-6.209-5.47-7.14v-22.168h1.97l7.838-11.138c1.659 1.022 2.738 2.739 2.894 4.653l.533 6.485h3.775c2.982 0 5.4-2.337 5.4-5.22V89.175h22.677c.963 3.06 3.905 5.288 7.386 5.288 4.264 0 7.721-3.341 7.721-7.463s-3.457-7.463-7.721-7.463zm-44.14 2.828c-.005.952-.685 2.042-1.524 2.042a.974.974 0 01-.159-.013c-.78 3.053-2.512 5.947-4.748 7.628.007 2.263 1.314 4.337 3.391 5.381l.508.256-6.457 9.177-1.595 2.267-1.594-2.267-6.457-9.177.508-.256c2.077-1.044 3.384-3.118 3.39-5.381-2.242-1.686-3.975-4.59-4.755-7.655a.989.989 0 01-.272.04c-.838 0-1.517-1.09-1.524-2.042a2.488 2.488 0 01-.6-1.58c0-.956.683-1.73 1.525-1.73.09 0 .176.01.263.028-.254-1.07-.648-3.435.156-5.509 1.08-2.784 2.43-4.437 4.32-4.785 1.89-.348 11.47.957 12.575 0 0 0 .875 1.218 0 2.001 0 0 1.915 1.218 2.275 4.394.351 3.092-.532 3.9-.58 3.94.136-.043.282-.069.431-.069.841 0 1.525.774 1.525 1.73a2.48 2.48 0 01-.602 1.58z" fill="#fff"/></svg>