<svg width="180" height="174" fill="none" xmlns="http://www.w3.org/2000/svg"><path d="M164.46 84.15c-1.515-3.537-4.763-4.386-6.96-4.589V58c0-7.997-6.728-14.5-15-14.5h-45V33.422c2.287-1.986 3.75-4.842 3.75-8.047 0-2.884-1.185-5.65-3.295-7.69S92.984 14.5 90 14.5s-5.845 1.146-7.955 3.185c-2.11 2.04-3.295 4.806-3.295 7.69 0 3.204 1.463 6.061 3.75 8.047V43.5h-45c-8.273 0-15 6.503-15 14.5v21.728l-.615.044a7.606 7.606 0 00-4.95 2.291A7.12 7.12 0 0014.925 87v14.5a7.13 7.13 0 002.197 5.127 7.636 7.636 0 005.303 2.123h.075V145c0 7.997 6.727 14.5 15 14.5h105c8.272 0 15-6.503 15-14.5v-36.25a7.634 7.634 0 005.303-2.123A7.13 7.13 0 00165 101.5V87.45a7.074 7.074 0 00-.54-3.3zM37.5 145V58h105l.007 28.971-.007.029v14.5l.007.036.008 43.464H37.5z" fill="#fff"/><path d="M63.75 101.5C69.963 101.5 75 95.008 75 87s-5.037-14.5-11.25-14.5S52.5 78.992 52.5 87s5.037 14.5 11.25 14.5zm52.5 0c6.213 0 11.25-6.492 11.25-14.5s-5.037-14.5-11.25-14.5S105 78.992 105 87s5.037 14.5 11.25 14.5zM60 116h60v14.5H60V116z" fill="#fff"/></svg>