<svg width="180" height="174" fill="none" xmlns="http://www.w3.org/2000/svg"><path d="M90 62.136c4.913 0 8.896-3.85 8.896-8.599 0-4.75-3.983-8.6-8.896-8.6s-8.896 3.85-8.896 8.6 3.983 8.6 8.896 8.6zm8.687 61.633A9.357 9.357 0 0193.79 120l4.125-34.937v-.247c0-.083.038-.138.048-.21a9.082 9.082 0 00-1.4-6.014 9.6 9.6 0 00-4.971-3.86 10.68 10.68 0 00-2.137-.457 9.907 9.907 0 00-5.6.998 9.468 9.468 0 00-4.035 3.883 8.24 8.24 0 011.483.348 9.61 9.61 0 014.898 3.76l-4.183 35.404a9.083 9.083 0 001.382 6 9.597 9.597 0 004.942 3.868c.043.05.047 0 .047 0 .694.225 1.41.378 2.137.457a9.894 9.894 0 005.6-.997 9.465 9.465 0 004.035-3.884 8.238 8.238 0 01-1.474-.343z" fill="#fff"/></svg>