<svg width="168" height="23" fill="none" xmlns="http://www.w3.org/2000/svg"><path d="M33.078 20.007V3.435h4.303l7.796 12.177-.614.163-.112-12.34h3.884v16.572h-4.22L36.347 7.83l.531-.19.084 12.367h-3.884zm17.546 0V3.435H63.06V6.71h-8.55v4.204h7.963v3.004H54.51v6.088h-3.885zm19.101 0V6.684h-5.309v-3.25h14.53v3.25h-5.308v13.323h-3.913zm16.32 0V3.435h8.998c1.677 0 2.962.318 3.856.955.913.619 1.37 1.684 1.37 3.195 0 1.092-.27 1.947-.81 2.566-.523.619-1.277 1.065-2.264 1.338l.81-1.502v2.54l-.894-1.448c.782.146 1.444.392 1.984.737.54.328.95.774 1.229 1.338.298.546.448 1.22.448 2.02 0 1.639-.513 2.858-1.537 3.66-1.006.782-2.515 1.173-4.527 1.173h-8.663zm8.495-3.003c.801 0 1.379-.2 1.733-.6.372-.401.559-.947.559-1.639 0-.637-.196-1.11-.587-1.42-.373-.309-.941-.464-1.705-.464h-4.61v4.123h4.61zm-.084-6.744c.708 0 1.22-.164 1.537-.491.336-.346.503-.81.503-1.393 0-.618-.167-1.092-.503-1.42-.335-.345-.847-.518-1.537-.518H89.93v3.822h4.527zm16.752 1.502c0-.692-.177-1.21-.531-1.556-.335-.364-.94-.546-1.816-.546-.689 0-1.22.127-1.593.382-.354.255-.577.61-.67 1.065h-3.633c.186-1.402.81-2.458 1.872-3.167 1.062-.71 2.431-1.065 4.108-1.065 1.77 0 3.213.391 4.331 1.174 1.136.764 1.705 2.056 1.705 3.877v8.081h-3.773v-8.245zm-4.275 8.628c-1.323 0-2.403-.319-3.242-.956-.819-.655-1.229-1.647-1.229-2.976 0-1.037.289-1.902.866-2.594.596-.691 1.658-1.156 3.186-1.392 1.546-.237 3.67-.137 6.371.3l-.335 1.966c-1.491-.146-2.683-.2-3.577-.164-.894.037-1.565.191-2.012.464-.447.255-.671.674-.671 1.256 0 .51.159.883.475 1.12.336.236.811.355 1.425.355.82 0 1.509-.173 2.068-.52a3.46 3.46 0 001.314-1.364l-.084 2.402c-.447.583-1.025 1.083-1.733 1.502-.689.4-1.63.6-2.822.6zm9.944-.383V7.257h3.772v2.949l-.195-.82c.111-.309.344-.655.698-1.037.373-.4.857-.746 1.453-1.037.596-.292 1.276-.437 2.04-.437 1.416 0 2.497.437 3.242 1.31.745.874 1.117 2.075 1.117 3.604v8.218h-3.772V12.69c0-.837-.196-1.465-.587-1.884-.372-.436-.931-.655-1.676-.655-.503 0-.923.11-1.258.328-.335.2-.596.491-.782.873-.187.383-.28.829-.28 1.338v7.317h-3.772zm14.026 0v-16.6h3.773v9.83l-.783-.165 5.198-5.815h5.058l-9.865 9.884.392-1.202v4.068h-3.773zm9.11 0l-4.052-5.952 2.515-2.375 6.036 8.327h-4.499zm11.075.437c-1.211 0-2.329-.245-3.353-.737-1.025-.491-1.854-1.247-2.487-2.266-.634-1.02-.951-2.303-.951-3.85 0-1.529.317-2.794.951-3.795.633-1.02 1.462-1.765 2.487-2.239a7.586 7.586 0 013.325-.737c1.248 0 2.384.273 3.409.82 1.043.527 1.863 1.383 2.459 2.566.596 1.165.829 2.666.699 4.505h-10.256l-.139-2.185H155l-1.062.901c-.037-.746-.168-1.383-.391-1.91-.205-.547-.522-.956-.95-1.23-.429-.29-.95-.436-1.565-.436-.671 0-1.23.163-1.677.491-.428.328-.745.783-.95 1.365-.205.565-.307 1.202-.307 1.911 0 .71.102 1.348.307 1.912.205.564.531 1.019.978 1.365.447.346 1.025.519 1.733.519.67 0 1.211-.146 1.62-.437.41-.291.708-.674.895-1.147h3.8c-.354 1.51-1.099 2.658-2.235 3.44-1.137.783-2.506 1.174-4.108 1.174zm8.277-.437V7.257h3.745v3.33l-.224-.627c.354-.874.764-1.556 1.23-2.048a3.385 3.385 0 011.676-.955c.634-.146 1.37-.128 2.208.054v3.85h-.112c-.801-.328-1.574-.41-2.319-.246a2.82 2.82 0 00-1.761 1.12c-.447.6-.67 1.383-.67 2.348v5.924h-3.773z" fill="#242953"/><path fill="#06F" d="M0 9.371h23.503v4.259H0z"/><path fill="#00F0FF" d="M22.007 4.715l-8.484 8.303-3.078-3.012 8.485-8.302zm-8.704 8.519l-8.485 8.303-3.077-3.012 8.484-8.303z"/><path d="M13.928 0v23H9.575V0h4.353z" fill="#06F"/></svg>